# xmcd CD database file
#
# Track frame offsets:
#	150
#	23691
#	45396
#	70230
#	73959
#	93192
#	115293
#	132803
#	160528
#
# Disc length: 2347 seconds
#
# Revision: 0
# Processed by: cddbd v1.5.1PL2 Copyright (c) Steve Scherf et al.
# Submitted via: Feurio! 1.68 - http://www.feurio.com
#
DISCID=6e092909
DTITLE=Ozzy Osbourne - Blizzard Of Ozz
DYEAR=1900
DGENRE=Hard Rock
TTITLE0=I Don't Know
TTITLE1=Crazy Train
TTITLE2=Goodbye To Romance
TTITLE3=Dee
TTITLE4=Suicide Solution
TTITLE5=Mr. Crowley
TTITLE6=No Bone Movies
TTITLE7=Revelation (Mother Earth)
TTITLE8=Steal Away (The Night)
EXTD=
EXTT0=
EXTT1=
EXTT2=
EXTT3=
EXTT4=
EXTT5=
EXTT6=
EXTT7=
EXTT8=
PLAYORDER=
